<svg id="visual" viewBox="0 0 675 900" width="675" height="900" xmlns="http://www.w3.org/2000/svg" xmlns:xlink="http://www.w3.org/1999/xlink" version="1.1"><path d="M0 73L40 73L40 46L79 46L79 73L119 73L119 46L159 46L159 127L199 127L199 91L238 91L238 73L278 73L278 46L318 46L318 73L357 73L357 55L397 55L397 55L437 55L437 100L476 100L476 82L516 82L516 127L556 127L556 109L596 109L596 118L635 118L635 100L675 100L675 136L675 0L675 0L635 0L635 0L596 0L596 0L556 0L556 0L516 0L516 0L476 0L476 0L437 0L437 0L397 0L397 0L357 0L357 0L318 0L318 0L278 0L278 0L238 0L238 0L199 0L199 0L159 0L159 0L119 0L119 0L79 0L79 0L40 0L40 0L0 0Z" fill="#001122"></path><path d="M0 91L40 91L40 64L79 64L79 118L119 118L119 64L159 64L159 154L199 154L199 145L238 145L238 127L278 127L278 82L318 82L318 118L357 118L357 109L397 109L397 109L437 109L437 127L476 127L476 118L516 118L516 145L556 145L556 127L596 127L596 154L635 154L635 145L675 145L675 154L675 134L675 98L635 98L635 116L596 116L596 107L556 107L556 125L516 125L516 80L476 80L476 98L437 98L437 53L397 53L397 53L357 53L357 71L318 71L318 44L278 44L278 71L238 71L238 89L199 89L199 125L159 125L159 44L119 44L119 71L79 71L79 44L40 44L40 71L0 71Z" fill="#0f1c35"></path><path d="M0 154L40 154L40 100L79 100L79 145L119 145L119 91L159 91L159 235L199 235L199 217L238 217L238 208L278 208L278 109L318 109L318 181L357 181L357 136L397 136L397 190L437 190L437 172L476 172L476 145L516 145L516 181L556 181L556 208L596 208L596 190L635 190L635 199L675 199L675 190L675 152L675 143L635 143L635 152L596 152L596 125L556 125L556 143L516 143L516 116L476 116L476 125L437 125L437 107L397 107L397 107L357 107L357 116L318 116L318 80L278 80L278 125L238 125L238 143L199 143L199 152L159 152L159 62L119 62L119 116L79 116L79 62L40 62L40 89L0 89Z" fill="#222647"></path><path d="M0 181L40 181L40 127L79 127L79 217L119 217L119 172L159 172L159 280L199 280L199 298L238 298L238 244L278 244L278 136L318 136L318 244L357 244L357 163L397 163L397 244L437 244L437 262L476 262L476 208L516 208L516 235L556 235L556 280L596 280L596 271L635 271L635 271L675 271L675 253L675 188L675 197L635 197L635 188L596 188L596 206L556 206L556 179L516 179L516 143L476 143L476 170L437 170L437 188L397 188L397 134L357 134L357 179L318 179L318 107L278 107L278 206L238 206L238 215L199 215L199 233L159 233L159 89L119 89L119 143L79 143L79 98L40 98L40 152L0 152Z" fill="#3a2e57"></path><path d="M0 253L40 253L40 154L79 154L79 280L119 280L119 208L159 208L159 334L199 334L199 325L238 325L238 271L278 271L278 190L318 190L318 289L357 289L357 235L397 235L397 280L437 280L437 316L476 316L476 253L516 253L516 271L556 271L556 307L596 307L596 343L635 343L635 307L675 307L675 289L675 251L675 269L635 269L635 269L596 269L596 278L556 278L556 233L516 233L516 206L476 206L476 260L437 260L437 242L397 242L397 161L357 161L357 242L318 242L318 134L278 134L278 242L238 242L238 296L199 296L199 278L159 278L159 170L119 170L119 215L79 215L79 125L40 125L40 179L0 179Z" fill="#553565"></path><path d="M0 334L40 334L40 262L79 262L79 334L119 334L119 298L159 298L159 388L199 388L199 361L238 361L238 361L278 361L278 235L318 235L318 379L357 379L357 325L397 325L397 361L437 361L437 361L476 361L476 343L516 343L516 325L556 325L556 379L596 379L596 442L635 442L635 388L675 388L675 334L675 287L675 305L635 305L635 341L596 341L596 305L556 305L556 269L516 269L516 251L476 251L476 314L437 314L437 278L397 278L397 233L357 233L357 287L318 287L318 188L278 188L278 269L238 269L238 323L199 323L199 332L159 332L159 206L119 206L119 278L79 278L79 152L40 152L40 251L0 251Z" fill="#723b6f"></path><path d="M0 523L40 523L40 415L79 415L79 460L119 460L119 640L159 640L159 532L199 532L199 514L238 514L238 568L278 568L278 541L318 541L318 532L357 532L357 541L397 541L397 577L437 577L437 496L476 496L476 505L516 505L516 595L556 595L556 640L596 640L596 595L635 595L635 496L675 496L675 541L675 332L675 386L635 386L635 440L596 440L596 377L556 377L556 323L516 323L516 341L476 341L476 359L437 359L437 359L397 359L397 323L357 323L357 377L318 377L318 233L278 233L278 359L238 359L238 359L199 359L199 386L159 386L159 296L119 296L119 332L79 332L79 260L40 260L40 332L0 332Z" fill="#904175"></path><path d="M0 694L40 694L40 631L79 631L79 721L119 721L119 748L159 748L159 721L199 721L199 712L238 712L238 685L278 685L278 676L318 676L318 685L357 685L357 721L397 721L397 658L437 658L437 685L476 685L476 721L516 721L516 694L556 694L556 721L596 721L596 730L635 730L635 694L675 694L675 739L675 539L675 494L635 494L635 593L596 593L596 638L556 638L556 593L516 593L516 503L476 503L476 494L437 494L437 575L397 575L397 539L357 539L357 530L318 530L318 539L278 539L278 566L238 566L238 512L199 512L199 530L159 530L159 638L119 638L119 458L79 458L79 413L40 413L40 521L0 521Z" fill="#ae4778"></path><path d="M0 712L40 712L40 694L79 694L79 775L119 775L119 766L159 766L159 757L199 757L199 766L238 766L238 703L278 703L278 721L318 721L318 721L357 721L357 775L397 775L397 721L437 721L437 712L476 712L476 784L516 784L516 757L556 757L556 748L596 748L596 766L635 766L635 721L675 721L675 802L675 737L675 692L635 692L635 728L596 728L596 719L556 719L556 692L516 692L516 719L476 719L476 683L437 683L437 656L397 656L397 719L357 719L357 683L318 683L318 674L278 674L278 683L238 683L238 710L199 710L199 719L159 719L159 746L119 746L119 719L79 719L79 629L40 629L40 692L0 692Z" fill="#ca4f76"></path><path d="M0 847L40 847L40 856L79 856L79 883L119 883L119 847L159 847L159 856L199 856L199 874L238 874L238 865L278 865L278 874L318 874L318 847L357 847L357 883L397 883L397 874L437 874L437 874L476 874L476 874L516 874L516 847L556 847L556 838L596 838L596 874L635 874L635 874L675 874L675 856L675 800L675 719L635 719L635 764L596 764L596 746L556 746L556 755L516 755L516 782L476 782L476 710L437 710L437 719L397 719L397 773L357 773L357 719L318 719L318 719L278 719L278 701L238 701L238 764L199 764L199 755L159 755L159 764L119 764L119 773L79 773L79 692L40 692L40 710L0 710Z" fill="#e45a71"></path><path d="M0 901L40 901L40 901L79 901L79 901L119 901L119 901L159 901L159 901L199 901L199 901L238 901L238 901L278 901L278 901L318 901L318 901L357 901L357 901L397 901L397 901L437 901L437 901L476 901L476 901L516 901L516 901L556 901L556 901L596 901L596 901L635 901L635 901L675 901L675 901L675 854L675 872L635 872L635 872L596 872L596 836L556 836L556 845L516 845L516 872L476 872L476 872L437 872L437 872L397 872L397 881L357 881L357 845L318 845L318 872L278 872L278 863L238 863L238 872L199 872L199 854L159 854L159 845L119 845L119 881L79 881L79 854L40 854L40 845L0 845Z" fill="#fa6969"></path></svg>